<mxfile host="app.diagrams.net" modified="2024-03-17T20:11:52.328Z" agent="Mozilla/5.0 (X11; Linux x86_64; rv:123.0) Gecko/20100101 Firefox/123.0" etag="668S0WnDhK9vkDd49YUy" version="24.0.7" type="github">
  <diagram id="C5RBs43oDa-KdzZeNtuy" name="Page-1">
    <mxGraphModel dx="623" dy="407" grid="1" gridSize="10" guides="1" tooltips="1" connect="1" arrows="1" fold="1" page="1" pageScale="1" pageWidth="827" pageHeight="1169" math="0" shadow="0">
      <root>
        <mxCell id="WIyWlLk6GJQsqaUBKTNV-0" />
        <mxCell id="WIyWlLk6GJQsqaUBKTNV-1" parent="WIyWlLk6GJQsqaUBKTNV-0" />
        <mxCell id="_XBkGqhqnQd2U8eVZXNx-2" value="" style="edgeStyle=orthogonalEdgeStyle;rounded=0;orthogonalLoop=1;jettySize=auto;html=1;" parent="WIyWlLk6GJQsqaUBKTNV-1" source="WIyWlLk6GJQsqaUBKTNV-3" target="_XBkGqhqnQd2U8eVZXNx-1" edge="1">
          <mxGeometry relative="1" as="geometry" />
        </mxCell>
        <mxCell id="WIyWlLk6GJQsqaUBKTNV-3" value="Hämta från transkriberingskö" style="rounded=1;whiteSpace=wrap;html=1;fontSize=9;glass=0;strokeWidth=1;shadow=0;" parent="WIyWlLk6GJQsqaUBKTNV-1" vertex="1">
          <mxGeometry x="40" y="40" width="120" height="40" as="geometry" />
        </mxCell>
        <mxCell id="_XBkGqhqnQd2U8eVZXNx-4" value="" style="edgeStyle=orthogonalEdgeStyle;rounded=0;orthogonalLoop=1;jettySize=auto;html=1;" parent="WIyWlLk6GJQsqaUBKTNV-1" source="_XBkGqhqnQd2U8eVZXNx-1" target="_XBkGqhqnQd2U8eVZXNx-3" edge="1">
          <mxGeometry relative="1" as="geometry" />
        </mxCell>
        <mxCell id="_XBkGqhqnQd2U8eVZXNx-1" value="Ladda ner videon från URL" style="rounded=1;whiteSpace=wrap;html=1;fontSize=9;glass=0;strokeWidth=1;shadow=0;" parent="WIyWlLk6GJQsqaUBKTNV-1" vertex="1">
          <mxGeometry x="40" y="100" width="120" height="40" as="geometry" />
        </mxCell>
        <mxCell id="_XBkGqhqnQd2U8eVZXNx-6" value="" style="edgeStyle=orthogonalEdgeStyle;rounded=0;orthogonalLoop=1;jettySize=auto;html=1;" parent="WIyWlLk6GJQsqaUBKTNV-1" source="_XBkGqhqnQd2U8eVZXNx-3" target="_XBkGqhqnQd2U8eVZXNx-5" edge="1">
          <mxGeometry relative="1" as="geometry" />
        </mxCell>
        <mxCell id="_XBkGqhqnQd2U8eVZXNx-3" value="Starta transkribering med OpenAI Whisper" style="rounded=1;whiteSpace=wrap;html=1;fontSize=9;glass=0;strokeWidth=1;shadow=0;" parent="WIyWlLk6GJQsqaUBKTNV-1" vertex="1">
          <mxGeometry x="40" y="160" width="120" height="40" as="geometry" />
        </mxCell>
        <mxCell id="z1Lridz9SXHiP6UBfXuK-2" style="edgeStyle=orthogonalEdgeStyle;rounded=0;orthogonalLoop=1;jettySize=auto;html=1;exitX=0.5;exitY=1;exitDx=0;exitDy=0;entryX=0.5;entryY=0;entryDx=0;entryDy=0;" edge="1" parent="WIyWlLk6GJQsqaUBKTNV-1" source="_XBkGqhqnQd2U8eVZXNx-5" target="UcNozbXcjYc5EnhzmKK8-0">
          <mxGeometry relative="1" as="geometry" />
        </mxCell>
        <mxCell id="_XBkGqhqnQd2U8eVZXNx-5" value="Spara färdig transkribering till databas" style="rounded=1;whiteSpace=wrap;html=1;fontSize=9;glass=0;strokeWidth=1;shadow=0;" parent="WIyWlLk6GJQsqaUBKTNV-1" vertex="1">
          <mxGeometry x="40" y="220" width="120" height="40" as="geometry" />
        </mxCell>
        <mxCell id="_XBkGqhqnQd2U8eVZXNx-7" value="Radera videofil från filsystemet för att spara utrymme" style="rounded=1;whiteSpace=wrap;html=1;fontSize=9;glass=0;strokeWidth=1;shadow=0;" parent="WIyWlLk6GJQsqaUBKTNV-1" vertex="1">
          <mxGeometry x="40" y="340" width="120" height="40" as="geometry" />
        </mxCell>
        <mxCell id="z1Lridz9SXHiP6UBfXuK-1" style="edgeStyle=orthogonalEdgeStyle;rounded=0;orthogonalLoop=1;jettySize=auto;html=1;exitX=0.5;exitY=1;exitDx=0;exitDy=0;entryX=0.5;entryY=0;entryDx=0;entryDy=0;" edge="1" parent="WIyWlLk6GJQsqaUBKTNV-1" source="UcNozbXcjYc5EnhzmKK8-0" target="_XBkGqhqnQd2U8eVZXNx-7">
          <mxGeometry relative="1" as="geometry" />
        </mxCell>
        <mxCell id="UcNozbXcjYc5EnhzmKK8-0" value="Markera som färdig i transkriberingskö" style="rounded=1;whiteSpace=wrap;html=1;fontSize=9;glass=0;strokeWidth=1;shadow=0;" parent="WIyWlLk6GJQsqaUBKTNV-1" vertex="1">
          <mxGeometry x="40" y="280" width="120" height="40" as="geometry" />
        </mxCell>
      </root>
    </mxGraphModel>
  </diagram>
</mxfile>
